<?xml version="1.0" encoding="utf-8"?>
<!-- Generator: Adobe Illustrator 19.0.0, SVG Export Plug-In . SVG Version: 6.00 Build 0)  -->
<svg version="1.1" id="图层_1" xmlns="http://www.w3.org/2000/svg" xmlns:xlink="http://www.w3.org/1999/xlink" x="0px" y="0px"
	 viewBox="0 0 18 18" style="enable-background:new 0 0 18 18;" xml:space="preserve">
<style type="text/css">
	.st0{clip-path:url(#XMLID_17_);fill-rule:evenodd;clip-rule:evenodd;fill:#F3C41C;}
	.st1{clip-path:url(#XMLID_17_);}
	.st2{clip-path:url(#XMLID_18_);fill-rule:evenodd;clip-rule:evenodd;fill:#6CB82D;}
	.st3{clip-path:url(#XMLID_18_);}
	.st4{clip-path:url(#XMLID_19_);fill-rule:evenodd;clip-rule:evenodd;fill:#698EC9;}
	.st5{clip-path:url(#XMLID_19_);}
	.st6{clip-path:url(#XMLID_20_);fill-rule:evenodd;clip-rule:evenodd;fill:#EB651A;}
</style>
<g id="XMLID_2_">
	<g id="XMLID_3_">
		<defs>
			<polygon id="XMLID_4_" points="0,17.4 18,17.4 18,0.6 0,0.6 0,17.4 			"/>
		</defs>
		<clipPath id="XMLID_17_">
			<use xlink:href="#XMLID_4_"  style="overflow:visible;"/>
		</clipPath>
		<path id="XMLID_14_" class="st0" d="M9.6,3.4c-1.8,0-3.2,1.4-3.2,3.2s1.4,3.2,3.2,3.2c1.8,0,3.2-1.4,3.2-3.2S11.4,3.4,9.6,3.4
			L9.6,3.4z M9.6,2c2.6,0,4.6,2.1,4.6,4.6s-2.1,4.6-4.6,4.6S4.9,9.2,4.9,6.6S7,2,9.6,2L9.6,2z"/>
		<g id="XMLID_5_" class="st1">
			<defs>
				<polygon id="XMLID_6_" points="0,17.4 18,17.4 18,0.6 0,0.6 0,17.4 				"/>
			</defs>
			<clipPath id="XMLID_18_">
				<use xlink:href="#XMLID_6_"  style="overflow:visible;"/>
			</clipPath>
			<path id="XMLID_13_" class="st2" d="M4,5.3L4,5.3C3.9,5.7,3.8,6.1,3.8,6.5c0,3.2,2.6,5.8,5.9,5.8s5.9-2.6,5.9-5.8
				c0-0.4,0-0.8-0.1-1.2l0-0.1l0.1,0.3c0.3,0.8,0.5,1.6,0.5,2.5c0,3.5-2.8,6.3-6.4,6.3S3.3,11.5,3.3,8c0-0.9,0.2-1.7,0.5-2.5L4,5.3
				L4,5.3L4,5.3z"/>
			<g id="XMLID_7_" class="st3">
				<defs>
					<polygon id="XMLID_8_" points="0,17.4 18,17.4 18,0.6 0,0.6 0,17.4 					"/>
				</defs>
				<clipPath id="XMLID_19_">
					<use xlink:href="#XMLID_8_"  style="overflow:visible;"/>
				</clipPath>
				<path id="XMLID_12_" class="st4" d="M16,4l0.3,0.3C17.4,5.6,18,7.2,18,9c0,4.1-3.3,7.3-7.4,7.3c-2,0-3.9-0.8-5.2-2.2L5.3,14
					l0.3,0.2c1.2,0.8,2.6,1.3,4.2,1.3c4.1,0,7.5-3.3,7.5-7.5c0-1.3-0.3-2.5-0.9-3.6L16,4z"/>
				<g id="XMLID_9_" class="st5">
					<defs>
						<polygon id="XMLID_10_" points="0,17.4 18,17.4 18,0.6 0,0.6 0,17.4 						"/>
					</defs>
					<clipPath id="XMLID_20_">
						<use xlink:href="#XMLID_10_"  style="overflow:visible;"/>
					</clipPath>
					<path id="XMLID_11_" class="st6" d="M8.4,0.6c0.3,0,0.6,0,0.9,0l0.2,0L8.8,0.8C5,1.6,2.1,4.9,2.1,9s2.9,7.4,6.7,8.2l0.7,0.1
						l-0.2,0c-0.3,0-0.6,0-0.9,0C3.8,17.4,0,13.6,0,9S3.8,0.6,8.4,0.6L8.4,0.6z"/>
				</g>
			</g>
		</g>
	</g>
</g>
</svg>
